<?xml version="1.0" standalone="no"?>
<!DOCTYPE svg PUBLIC "-//W3C//DTD SVG 20010904//EN"
 "http://www.w3.org/TR/2001/REC-SVG-20010904/DTD/svg10.dtd">
<svg version="1.0" xmlns="http://www.w3.org/2000/svg"
 width="512.000000pt" height="512.000000pt" viewBox="0 0 512.000000 512.000000"
 preserveAspectRatio="xMidYMid meet">
<metadata>
Created by potrace 1.11, written by Peter Selinger 2001-2013
</metadata>
<g transform="translate(0.000000,512.000000) scale(0.100000,-0.100000)"
fill="#000000" stroke="none">
<path d="M2130 4737 c0 -10 -5 -15 -11 -12 -5 4 -20 -1 -31 -12 -12 -10 -19
-13 -15 -7 3 6 0 11 -7 11 -8 0 -12 -6 -9 -13 3 -8 -2 -11 -15 -7 -11 2 -23
-1 -27 -8 -5 -7 -4 -10 3 -5 6 3 14 1 18 -5 4 -7 3 -9 -4 -5 -6 3 -18 -1 -26
-10 -9 -9 -16 -11 -16 -4 0 6 -5 8 -10 5 -6 -4 -7 -11 -4 -17 5 -8 1 -9 -10
-5 -14 6 -15 4 -5 -14 7 -14 7 -19 1 -15 -6 4 -15 -2 -21 -11 -6 -10 -11 -13
-11 -7 0 5 6 16 13 24 10 12 9 12 -5 1 -10 -7 -18 -22 -18 -32 0 -11 -7 -19
-15 -19 -8 0 -15 -6 -15 -14 0 -20 -29 -48 -42 -40 -5 4 -4 -4 3 -17 11 -21
11 -23 -4 -11 -13 11 -15 10 -13 -13 3 -20 1 -23 -10 -14 -11 9 -14 7 -14 -10
0 -12 -6 -21 -16 -21 -8 0 -13 -4 -10 -9 3 -4 -3 -16 -14 -26 -11 -10 -17 -22
-14 -26 3 -5 0 -9 -5 -9 -6 0 -11 -9 -11 -20 0 -14 -5 -18 -17 -13 -11 4 -14
3 -9 -5 4 -7 2 -12 -3 -12 -6 0 -11 -5 -11 -11 0 -5 5 -7 12 -3 7 4 8 3 4 -5
-6 -9 -11 -9 -24 1 -12 10 -14 10 -8 1 4 -8 2 -13 -6 -13 -9 0 -9 -3 2 -10 13
-9 7 -14 -12 -11 -4 0 -11 -11 -14 -25 -5 -19 -9 -22 -15 -12 -7 10 -9 9 -9
-4 0 -10 -6 -18 -12 -18 -9 0 -8 -4 2 -10 13 -9 7 -14 -12 -11 -5 0 -8 -8 -8
-19 0 -14 -5 -18 -17 -13 -10 3 -15 2 -10 -2 4 -5 -1 -17 -10 -28 -17 -19 -17
-20 0 -14 12 4 16 3 11 -4 -3 -6 -14 -9 -24 -6 -14 3 -17 1 -13 -11 5 -11 3
-13 -7 -7 -9 5 -11 4 -6 -4 8 -12 -23 -57 -39 -57 -5 0 -12 -13 -15 -30 -4
-20 -11 -28 -23 -26 -12 2 -15 -2 -10 -14 5 -13 3 -15 -7 -9 -10 6 -12 4 -7
-8 5 -13 1 -17 -15 -17 -12 0 -18 -3 -15 -7 4 -3 -1 -15 -10 -26 -13 -15 -14
-18 -3 -13 8 5 -1 -6 -20 -24 -19 -18 -28 -29 -20 -25 8 4 4 -3 -10 -15 -14
-12 -19 -18 -11 -14 9 5 12 3 7 -4 -4 -7 -15 -12 -24 -12 -14 0 -14 -2 -3 -9
11 -7 9 -10 -9 -16 -18 -6 -20 -9 -9 -16 11 -7 11 -9 -3 -9 -9 0 -20 -9 -23
-21 -4 -11 -9 -18 -12 -15 -9 8 -32 -26 -33 -48 0 -12 -5 -16 -15 -12 -8 3
-14 2 -13 -2 4 -14 -14 -52 -24 -52 -5 0 -7 -7 -4 -16 5 -14 4 -15 -9 -4 -13
11 -14 10 -9 -4 3 -9 1 -16 -6 -16 -6 0 -9 -3 -7 -7 3 -5 -5 -17 -16 -28 -11
-11 -16 -14 -12 -6 6 10 4 12 -4 7 -9 -6 -9 -12 1 -24 7 -10 8 -14 4 -10 -5 4
-19 -6 -31 -22 -12 -16 -25 -27 -28 -23 -6 6 -11 -12 -8 -29 0 -5 -5 -8 -11
-8 -9 0 -8 -4 2 -10 13 -8 12 -10 -3 -10 -10 0 -15 -4 -12 -10 3 -5 1 -10 -6
-10 -7 0 -9 -8 -6 -21 4 -15 2 -18 -7 -10 -9 7 -12 4 -13 -12 -1 -12 -7 -23
-13 -25 -5 -2 -8 -8 -4 -13 3 -5 0 -9 -6 -9 -6 0 -8 -5 -5 -10 3 -6 -1 -13 -9
-16 -9 -3 -14 -10 -11 -14 3 -5 1 -11 -5 -15 -6 -4 -8 -11 -5 -16 4 -5 -1 -9
-10 -9 -12 0 -15 -6 -10 -21 5 -15 4 -19 -4 -15 -6 4 -14 -1 -17 -11 -3 -10
-11 -29 -17 -43 -6 -14 -9 -32 -8 -40 1 -12 0 -12 -7 -2 -7 10 -11 10 -21 -2
-7 -8 -10 -20 -6 -26 4 -7 -2 -14 -14 -17 -17 -4 -19 -8 -10 -19 9 -11 9 -14
0 -14 -7 0 -10 -4 -6 -9 3 -5 0 -13 -6 -17 -7 -4 -9 -3 -5 4 3 6 2 14 -4 17
-6 4 -10 3 -9 -2 5 -29 -2 -53 -13 -47 -8 5 -7 0 2 -11 8 -10 10 -16 3 -12 -6
4 -14 3 -18 -3 -3 -5 0 -10 7 -11 7 0 2 -5 -11 -10 -15 -6 -21 -15 -17 -24 3
-8 1 -15 -4 -15 -6 0 -10 -5 -10 -11 0 -7 -7 -17 -16 -23 -14 -11 -21 -30 -23
-66 -1 -12 -3 -13 -10 -1 -11 16 -19 3 -16 -26 1 -16 -4 -23 -16 -23 -13 0
-16 -5 -12 -16 4 -10 -1 -22 -11 -30 -10 -7 -15 -17 -12 -22 3 -5 -2 -16 -12
-23 -16 -13 -16 -13 -2 6 14 18 14 19 -2 7 -9 -7 -15 -22 -13 -33 2 -12 -2
-19 -11 -19 -9 0 -14 -10 -14 -30 0 -23 -4 -28 -16 -23 -10 4 -15 1 -14 -8 4
-27 0 -40 -10 -34 -5 3 -10 -1 -10 -10 0 -10 5 -13 12 -9 7 4 8 3 4 -5 -4 -6
-12 -9 -17 -6 -5 4 -9 -2 -9 -12 0 -15 -2 -16 -10 -3 -8 12 -10 9 -10 -13 0
-15 -6 -30 -14 -33 -8 -3 -13 -14 -11 -25 2 -10 -1 -22 -7 -25 -7 -5 -8 -2 -3
7 8 12 6 12 -9 0 -12 -10 -14 -16 -5 -22 8 -5 5 -10 -10 -18 -12 -7 -19 -16
-16 -22 4 -5 1 -9 -5 -9 -6 0 -8 -4 -5 -10 3 -5 0 -10 -7 -10 -9 0 -9 -3 2
-10 13 -8 13 -10 -2 -10 -12 0 -15 -5 -11 -17 4 -11 3 -14 -5 -9 -7 4 -13 2
-13 -3 -1 -6 -2 -17 -3 -23 -1 -7 -7 -12 -14 -11 -7 2 -9 -4 -5 -14 5 -12 3
-14 -7 -8 -10 6 -11 2 -6 -19 4 -18 3 -25 -4 -21 -5 3 -10 1 -10 -5 0 -6 -4
-9 -9 -6 -5 4 -8 -2 -6 -11 1 -10 -4 -26 -12 -35 -8 -9 -12 -22 -7 -29 5 -8 3
-10 -6 -4 -10 6 -12 4 -6 -10 5 -15 4 -16 -9 -5 -13 11 -15 8 -15 -23 0 -20
-4 -39 -10 -42 -6 -4 -7 1 -4 12 5 15 4 15 -4 3 -8 -10 -7 -19 1 -29 10 -12 9
-13 -1 -7 -10 6 -13 3 -12 -10 4 -32 0 -45 -9 -40 -4 3 -9 -44 -9 -105 -1 -78
2 -108 10 -103 7 5 9 2 5 -9 -3 -9 -2 -19 3 -22 6 -4 10 -15 10 -26 0 -10 4
-19 9 -19 5 0 12 -9 16 -19 4 -12 12 -18 21 -14 10 4 12 0 8 -11 -4 -12 0 -16
15 -16 13 0 25 -9 31 -24 5 -13 20 -26 36 -30 22 -6 25 -9 13 -17 -7 -5 -9 -9
-3 -9 5 0 16 6 23 12 11 10 13 10 7 1 -4 -7 -2 -13 4 -13 6 0 8 -4 5 -10 -4
-6 1 -7 11 -3 11 4 15 3 11 -4 -5 -7 2 -10 18 -9 14 2 31 -4 37 -12 11 -13 11
-14 -1 -7 -8 5 -12 4 -8 -1 3 -6 21 -9 40 -9 28 1 34 -2 29 -14 -5 -14 -4 -14
13 -1 11 9 16 10 11 3 -6 -11 7 -19 17 -10 2 1 11 -5 20 -15 9 -9 28 -15 42
-14 13 2 22 -1 19 -6 -3 -4 8 -11 25 -14 17 -4 31 -11 31 -16 0 -5 5 -6 10 -3
6 3 10 1 10 -6 0 -8 4 -8 13 -1 8 7 19 6 37 -5 14 -8 17 -12 8 -9 -10 3 -18 1
-18 -5 0 -6 10 -9 23 -7 12 2 28 -4 35 -12 8 -8 11 -9 7 -2 -3 6 -2 12 3 12 6
0 13 -7 16 -16 3 -8 10 -12 16 -9 5 3 10 1 10 -5 0 -8 6 -7 21 1 15 8 19 8 15
0 -4 -6 -1 -11 6 -11 9 0 9 -3 -2 -10 -12 -7 -10 -9 7 -7 12 0 19 6 15 12 -3
5 2 4 11 -3 9 -8 22 -10 29 -6 8 5 8 1 -2 -11 -8 -10 -10 -16 -3 -12 6 4 14 3
18 -3 4 -7 12 -7 25 0 15 8 18 7 14 -4 -3 -9 6 -17 26 -24 24 -9 29 -8 23 1
-5 9 -3 9 9 0 8 -7 18 -10 21 -6 4 3 9 -1 13 -10 3 -9 14 -14 25 -12 10 2 22
-2 26 -10 5 -7 17 -15 28 -17 11 -1 26 -8 33 -15 7 -7 19 -10 27 -7 10 4 15 0
16 -12 0 -18 1 -18 8 0 7 18 8 18 14 2 4 -9 11 -14 17 -11 5 3 10 1 10 -5 0
-6 5 -8 11 -4 6 3 15 1 19 -7 5 -7 21 -14 37 -17 15 -2 34 -9 42 -15 8 -7 22
-11 33 -9 13 2 18 -3 18 -20 0 -13 4 -18 8 -13 9 13 42 16 42 4 0 -5 8 -5 18
-2 15 6 15 5 3 -11 -8 -9 -10 -16 -5 -15 26 5 64 -2 59 -11 -6 -10 0 -12 48
-12 22 -1 25 -3 16 -15 -9 -11 -9 -12 5 -7 9 3 16 2 16 -4 0 -6 10 -8 21 -5
14 4 25 0 31 -11 5 -9 20 -16 34 -16 18 0 23 -4 18 -12 -6 -10 -4 -10 8 0 12
9 17 10 20 1 2 -6 16 -11 31 -11 22 0 25 -3 16 -14 -9 -11 -6 -13 20 -10 17 2
31 -1 31 -6 0 -6 7 -8 15 -4 8 3 14 2 14 -2 -3 -19 2 -23 16 -12 13 10 15 9
15 -11 0 -22 1 -22 13 -4 11 14 16 15 22 5 5 -9 4 -11 -3 -6 -7 4 -12 2 -12
-3 0 -6 8 -11 18 -11 23 -1 54 -25 44 -35 -4 -5 -1 -5 7 0 12 7 11 10 -4 22
-11 7 -15 13 -9 13 5 0 18 -7 28 -15 11 -8 28 -15 37 -15 10 0 21 -4 24 -10 3
-5 0 -7 -8 -4 -8 3 -17 1 -21 -4 -3 -5 9 -8 27 -7 43 3 64 -5 45 -16 -9 -6 -2
-9 19 -9 17 0 34 -6 36 -12 4 -10 8 -9 16 2 9 13 11 12 11 -4 0 -14 6 -17 25
-14 13 3 22 1 19 -3 -2 -4 5 -13 17 -19 13 -7 19 -8 15 -2 -3 6 -1 14 5 18 7
4 9 3 6 -3 -3 -5 3 -17 14 -26 13 -11 19 -13 19 -4 0 8 4 7 10 -3 5 -8 10 -11
10 -6 0 5 8 2 17 -5 14 -12 16 -12 8 0 -6 10 -4 12 4 7 7 -5 10 -14 7 -21 -5
-14 11 -15 33 -1 10 7 12 6 6 -4 -6 -10 -1 -12 19 -8 20 4 24 2 16 -7 -8 -9
-6 -14 5 -19 8 -3 15 0 15 6 0 7 4 7 13 -1 8 -6 17 -8 20 -4 4 3 7 -1 7 -10 0
-10 5 -17 11 -17 5 0 8 4 5 9 -4 5 5 4 18 -2 13 -7 22 -15 20 -19 -5 -8 7 -10
54 -11 14 -1 21 -6 18 -13 -3 -8 2 -11 14 -9 11 2 22 0 25 -5 3 -5 12 -7 20
-3 9 3 15 -1 15 -11 0 -9 5 -16 11 -16 5 0 7 6 3 13 -6 9 -5 9 7 0 9 -7 29
-13 46 -15 18 -1 29 -6 27 -10 -3 -5 -11 -5 -17 -2 -7 4 -9 3 -4 -1 13 -15 49
-17 40 -3 -4 7 5 5 20 -5 15 -9 27 -13 27 -8 0 6 7 8 15 5 8 -4 13 -9 10 -13
-2 -4 21 -9 51 -10 44 -2 54 1 48 11 -6 11 -5 11 8 0 10 -8 48 -11 121 -10 59
1 102 5 96 9 -16 9 1 16 34 14 19 -1 27 3 28 14 0 12 3 11 9 -4 l9 -20 0 20
c1 15 3 17 10 7 7 -11 9 -10 15 3 3 9 10 14 15 11 5 -3 14 1 21 10 7 8 19 13
26 10 7 -3 16 -1 19 5 4 5 10 7 15 4 4 -3 11 2 14 11 3 8 10 12 16 9 5 -3 10
-2 10 4 0 6 7 8 15 4 10 -3 15 0 13 8 -2 8 3 13 10 12 6 -2 12 7 12 18 0 19 2
20 17 8 9 -8 14 -9 10 -3 -8 14 16 37 28 26 5 -4 5 1 2 10 -3 10 -3 17 1 17
21 -4 42 2 42 12 0 16 26 39 35 31 5 -4 5 1 2 10 -7 20 9 35 16 16 3 -7 6 0 6
15 1 16 5 26 11 22 6 -3 10 -1 10 5 0 6 7 18 15 26 8 9 15 24 15 35 0 11 4 18
9 14 5 -3 12 -1 16 5 3 5 0 10 -7 10 -10 0 -9 3 2 9 8 6 17 8 21 5 4 -2 11 1
15 7 4 8 3 9 -4 5 -7 -4 -12 -4 -12 1 1 12 26 43 31 38 3 -2 11 5 18 17 8 13
8 18 1 13 -8 -5 -7 0 1 13 7 12 18 18 24 14 5 -3 4 2 -4 11 -12 15 -12 17 3
11 12 -4 16 -1 16 14 0 12 5 24 12 28 7 5 8 3 3 -6 -5 -9 -4 -11 3 -6 7 4 12
18 12 32 0 14 4 22 10 19 9 -6 15 16 11 39 -1 5 5 4 13 -3 12 -10 14 -8 12 13
-2 17 2 26 10 26 8 0 15 5 15 10 1 6 2 16 3 23 1 6 7 11 13 10 15 -3 27 33 17
49 -6 9 -3 9 9 -1 15 -12 17 -11 17 8 0 12 6 24 14 27 9 3 12 12 9 22 -5 11
-2 14 11 9 12 -5 16 -2 14 11 -2 10 2 16 11 14 12 -3 12 -1 0 14 -9 12 -10 15
-1 10 7 -4 15 0 19 11 4 10 10 21 15 24 5 3 10 15 11 26 0 13 6 19 14 16 8 -3
13 3 13 17 0 11 5 18 10 15 6 -3 11 -1 11 4 1 6 3 16 4 21 1 6 3 14 4 20 0 5
7 9 14 7 6 -1 11 4 9 11 -1 7 8 22 20 33 13 11 17 17 9 13 -9 -5 -8 2 5 19 10
15 25 27 32 27 7 0 12 13 12 30 0 19 5 29 13 27 6 -1 11 6 11 15 -1 9 4 14 11
12 8 -3 12 2 12 13 -2 13 4 17 18 15 l20 -4 -20 16 c-13 11 -15 15 -5 14 9 -2
16 6 18 21 3 19 6 21 13 10 7 -11 9 -10 10 6 1 11 1 23 0 27 0 5 5 7 11 5 7
-1 14 8 16 21 2 12 7 20 12 17 5 -3 12 6 16 20 3 14 12 25 20 25 8 0 11 6 8
15 -4 8 -1 15 4 15 6 0 14 10 18 22 3 12 13 28 20 36 8 7 11 19 7 25 -4 6 0 8
10 4 13 -5 17 -1 17 18 0 14 6 25 13 25 7 0 18 9 25 21 8 12 9 18 3 14 -20
-12 -11 6 14 29 14 13 25 29 25 36 0 7 7 10 16 6 14 -5 15 -4 4 9 -10 12 -10
15 0 15 7 0 10 7 6 15 -3 9 0 15 8 15 7 0 21 9 31 20 10 11 13 20 7 20 -6 0
-13 -6 -15 -12 -4 -10 -6 -10 -6 0 -1 8 8 16 18 19 12 3 17 11 14 19 -3 8 1
14 10 14 11 0 15 7 12 21 -3 16 0 19 12 15 12 -5 14 -1 10 14 -3 11 -1 20 5
20 5 0 6 6 2 13 -5 8 -2 8 9 -2 15 -12 17 -11 17 8 0 11 5 21 10 21 6 0 10 9
10 20 0 11 7 23 15 26 8 4 12 10 9 15 -3 5 -1 9 5 9 6 0 8 7 5 15 -4 10 0 15
12 15 16 0 17 2 4 10 -12 8 -12 10 -1 10 8 0 11 3 8 7 -4 3 0 14 9 24 10 11
17 38 18 68 0 27 5 53 10 58 5 4 6 3 2 -4 -3 -6 -2 -14 3 -18 11 -6 7 27 -5
47 -4 6 -3 8 3 5 7 -4 10 12 10 43 0 29 -4 47 -9 44 -6 -4 -6 2 0 13 11 20 11
48 -1 59 -3 4 -4 -3 -2 -15 2 -12 0 -19 -5 -16 -9 6 -8 24 3 43 5 7 3 12 -3
12 -6 0 -10 8 -8 18 2 9 -3 23 -12 30 -13 10 -12 11 5 6 19 -5 19 -5 2 9 -10
8 -17 23 -15 34 2 10 -2 17 -10 15 -10 -2 -10 2 -2 18 10 18 7 24 -12 21 -4 0
-5 8 -3 19 2 12 -5 26 -18 35 -12 8 -18 15 -13 15 5 0 2 8 -5 17 -10 11 -10
14 -1 9 6 -4 12 -2 12 3 0 6 -7 11 -15 11 -14 0 -20 12 -16 33 1 5 -3 6 -9 2
-5 -3 -10 -2 -10 3 0 5 -10 14 -22 21 -16 8 -17 10 -4 6 16 -5 17 -3 6 10 -7
8 -16 13 -19 10 -4 -2 -8 2 -9 10 -1 8 -3 21 -4 29 -1 8 -7 12 -15 9 -12 -5
-19 22 -14 51 1 5 -6 3 -15 -5 -10 -8 -15 -9 -11 -2 4 6 3 14 -3 18 -6 4 -7
11 -4 17 5 7 1 9 -9 5 -13 -5 -17 -1 -17 14 0 11 -4 17 -10 14 -5 -3 -7 0 -4
8 3 8 -6 23 -20 35 -14 11 -26 25 -26 32 0 6 -4 9 -9 6 -5 -3 -12 1 -15 10 -4
10 -2 13 7 8 9 -6 9 -5 0 8 -7 8 -10 18 -6 22 4 4 -1 4 -11 0 -13 -5 -17 -4
-13 3 4 6 0 14 -9 17 -9 3 -14 13 -11 20 7 17 -18 41 -32 32 -5 -3 -7 3 -4 14
3 11 0 20 -6 20 -6 0 -11 6 -11 14 0 7 -11 21 -25 30 -14 9 -27 27 -31 41 -3
14 -10 25 -15 25 -5 0 -9 7 -9 16 0 13 -3 14 -14 5 -12 -10 -14 -9 -9 7 3 12
-1 22 -11 25 -9 4 -16 15 -16 26 0 24 -16 36 -24 19 -4 -9 -5 -8 -5 2 1 8 1
24 0 35 -1 17 -3 18 -11 5 -9 -13 -10 -13 -11 0 -1 8 -1 18 0 23 0 4 -6 7 -15
7 -8 0 -12 5 -9 10 3 6 1 10 -5 10 -6 0 -8 5 -5 10 3 6 -1 10 -9 10 -9 0 -15
3 -15 8 4 23 -3 42 -13 40 -7 -2 -12 3 -11 9 2 7 -6 18 -16 25 -10 6 -17 18
-14 25 3 7 -2 13 -11 13 -9 0 -16 8 -16 21 0 13 -4 18 -12 13 -8 -5 -9 -2 -5
9 5 13 1 17 -14 17 -11 0 -18 4 -15 9 7 10 -28 44 -36 35 -4 -3 -16 0 -28 6
-18 10 -21 9 -15 -2 3 -7 0 -5 -8 5 -14 17 -33 25 -24 10 3 -5 -7 -9 -21 -9
-15 -1 -21 1 -14 3 6 3 12 9 12 14 0 11 -23 7 -32 -6 -5 -6 -8 -5 -8 3 0 6 -5
12 -11 12 -5 0 -7 -6 -3 -12 6 -10 5 -10 -7 -1 -8 6 -24 10 -34 9 -11 -2 -28
4 -38 12 -16 14 -19 14 -27 2 -8 -12 -10 -12 -10 4 0 15 -3 16 -14 7 -9 -8
-16 -8 -20 -2 -4 6 -14 7 -23 4 -12 -5 -15 -2 -11 8 4 11 -5 14 -46 15 -43 0
-51 3 -50 18 2 16 1 16 -17 0 -11 -9 -22 -14 -26 -11 -3 4 -1 7 5 7 7 0 12 4
12 9 0 10 -19 9 -37 -2 -8 -5 -13 -4 -13 2 0 6 -9 11 -21 11 -13 0 -18 4 -13
13 5 7 0 6 -11 -3 -11 -9 -16 -10 -11 -2 6 11 -16 16 -51 11 -3 0 -10 6 -15
15 -5 9 -14 14 -19 10 -5 -3 -16 0 -24 6 -8 7 -15 9 -15 5 0 -4 -8 -1 -17 6
-14 12 -16 12 -8 0 6 -11 5 -12 -6 -5 -15 9 -29 12 -66 16 -18 2 -20 5 -10 17
10 12 9 13 -12 2 -15 -8 -21 -9 -17 -2 5 7 -4 11 -24 11 -19 0 -33 6 -37 17
-6 15 -7 15 -14 -3 -6 -16 -8 -16 -8 -2 -1 12 -6 15 -18 11 -12 -5 -14 -3 -8
8 7 11 5 11 -10 -1 -10 -8 -16 -10 -13 -5 4 6 3 17 -3 25 -6 10 -9 11 -9 3 0
-9 -7 -10 -24 -3 -13 5 -26 7 -29 4 -2 -2 -10 2 -17 11 -7 8 -19 15 -27 15 -8
0 -11 5 -7 12 4 7 3 8 -5 4 -6 -4 -23 0 -38 9 -16 11 -23 12 -17 4 4 -8 -5 -3
-21 9 -22 17 -30 20 -37 10 -6 -10 -8 -10 -8 1 0 8 -3 11 -7 8 -4 -4 -19 5
-34 19 -17 16 -34 24 -43 21 -9 -4 -16 -2 -16 3 0 6 -3 9 -7 9 -20 -3 -26 2
-13 11 11 7 6 9 -19 6 -26 -3 -35 0 -38 15 -3 10 -8 17 -12 14 -4 -2 -20 3
-35 11 -16 7 -35 14 -43 14 -13 0 -13 3 -2 16 11 13 11 15 -2 14 -31 -5 -49 1
-49 16 0 8 -4 12 -10 9 -5 -3 -10 1 -10 11 0 14 -2 15 -17 3 -11 -10 -14 -10
-9 -1 4 7 2 12 -8 12 -8 0 -18 5 -22 12 -5 7 -3 8 6 3 9 -6 11 -4 5 4 -4 7
-16 11 -26 8 -11 -3 -19 -2 -19 2 0 3 -9 12 -21 19 -17 11 -23 11 -37 0 -12
-10 -14 -10 -8 0 4 7 1 12 -8 12 -9 0 -16 4 -16 9 0 6 -48 10 -110 10 -99 0
-109 -1 -103 -17 4 -13 2 -13 -10 3 -15 18 -16 19 -17 2z m-880 -1071 c0 -2
-7 -9 -15 -16 -13 -11 -14 -10 -9 4 5 14 24 23 24 12z m3675 -1156 c-3 -5 -12
-10 -18 -10 -7 0 -6 4 3 10 19 12 23 12 15 0z"/>
<path d="M2865 4480 c3 -5 8 -10 11 -10 2 0 4 5 4 10 0 6 -5 10 -11 10 -5 0
-7 -4 -4 -10z"/>
<path d="M3055 4400 c3 -5 8 -10 11 -10 2 0 4 5 4 10 0 6 -5 10 -11 10 -5 0
-7 -4 -4 -10z"/>
<path d="M3865 4160 c3 -5 8 -10 11 -10 2 0 4 5 4 10 0 6 -5 10 -11 10 -5 0
-7 -4 -4 -10z"/>
<path d="M845 3089 c-4 -6 -5 -12 -2 -15 2 -3 7 2 10 11 7 17 1 20 -8 4z"/>
<path d="M243 2035 c0 -8 4 -12 9 -9 5 3 6 10 3 15 -9 13 -12 11 -12 -6z"/>
<path d="M265 1470 c3 -5 8 -10 11 -10 2 0 4 5 4 10 0 6 -5 10 -11 10 -5 0 -7
-4 -4 -10z"/>
<path d="M3425 420 c-3 -5 -1 -10 4 -10 6 0 11 5 11 10 0 6 -2 10 -4 10 -3 0
-8 -4 -11 -10z"/>
</g>
</svg>
